# xmcd
#
# Track frame offsets:
#	150
#	11602
#	24898
#	34479
#	45375
#	53880
#	63792
#	75822
#	85771
#	96733
#	108890
#	121357
#
# Disc length: 1751 seconds
#
# Revision: 1
# Processed by: cddbd v1.5.2PL0 Copyright (c) Steve Scherf et al.
# Submitted via: audiograbber 1.83.01
#
DISCID=8706d50c
DTITLE=George Jones - Sings Country and Western Hits
DYEAR=1962
DGENRE=Country
TTITLE0=Heartaches By The Number
TTITLE1=I Love You Because
TTITLE2=If You've Got The Money
TTITLE3=Talk To Me Lonesome Heart
TTITLE4=Poor Man's Riches
TTITLE5=If You Want Me
TTITLE6=Oh Lonesome Me
TTITLE7=I'll Walk The Line
TTITLE8=Life To Go
TTITLE9=Window Up Above
TTITLE10=Just One More
TTITLE11=It's Been So Long Darling
EXTD=
EXTT0=
EXTT1=
EXTT2=
EXTT3=
EXTT4=
EXTT5=
EXTT6=
EXTT7=
EXTT8=
EXTT9=
EXTT10=
EXTT11=
PLAYORDER=
